<svg width="152" height="49" viewBox="0 0 152 49" fill="none" xmlns="http://www.w3.org/2000/svg">
<g clip-path="url(#clip0_537_2682)">
<path d="M140.552 0.102356H12.011C5.79995 0.102356 0.764893 5.15057 0.764893 11.3779V37.2764C0.764893 43.5037 5.79995 48.5519 12.011 48.5519H140.552C146.763 48.5519 151.798 43.5037 151.798 37.2764V11.3779C151.798 5.15057 146.763 0.102356 140.552 0.102356Z" fill="#F8F8F8"/>
<path d="M56.296 48.5519H9.34032C4.40219 48.5519 0.397339 44.5366 0.397339 39.5856V9.06645C0.397339 4.11541 4.40219 0.100098 9.34032 0.100098H56.296V48.5497V48.5519Z" fill="#E38982"/>
<path d="M21.2525 32.6313H13.5613V28.9778L20.8872 11.7017H25.2818V28.9778H27.1862V32.6313H25.2818V37.2697H21.2525V32.6313ZM21.2525 28.9778V19.0065H21.179L17.2231 28.9778H21.2525Z" fill="white"/>
<path d="M28.4314 33.3973H32.3137V37.2697H28.4314V33.3973Z" fill="white"/>
<path d="M35.7929 35.9722C34.7683 34.8645 34.2538 33.2767 34.2538 31.2065V30.7308H38.0626V31.4611C38.0626 33.1405 38.7576 33.9824 40.1497 33.9824C40.907 33.9824 41.4683 33.7524 41.8336 33.2879C42.1989 32.8256 42.3838 32.0105 42.3838 30.8403V25.9451H42.3103C41.602 27.4302 40.3814 28.1738 38.6484 28.1738C37.1828 28.1738 36.0714 27.6758 35.3163 26.6753C34.559 25.6771 34.1803 24.2277 34.1803 22.3295V17.7626C34.1803 15.717 34.706 14.1336 35.7551 13.0148C36.8042 11.8959 38.3188 11.3354 40.2967 11.3354C42.2746 11.3354 43.7893 11.8959 44.8384 13.0148C45.8875 14.1358 46.4131 15.717 46.4131 17.7626V30.9854C46.4131 35.4184 44.3617 37.6337 40.2589 37.6337C38.3054 37.6337 36.8153 37.0799 35.7907 35.9722H35.7929ZM42.386 22.0012V17.4723C42.386 15.8174 41.6911 14.9889 40.2989 14.9889C38.9068 14.9889 38.2119 15.8174 38.2119 17.4723V22.0012C38.2119 23.6806 38.9068 24.5225 40.2989 24.5225C41.6911 24.5225 42.386 23.6828 42.386 22.0012Z" fill="white"/>
<path d="M70.6004 32.006L71.9056 34.8578C71.9725 35.003 72.1106 35.1035 72.2687 35.1214L75.3782 35.4854C75.7657 35.53 75.9216 36.0124 75.6343 36.2782L73.3334 38.4042C73.2154 38.5136 73.1641 38.6744 73.1953 38.8307L73.8101 41.9081C73.8858 42.2922 73.4782 42.5892 73.1374 42.3972L70.4088 40.8607C70.2707 40.7826 70.0992 40.7826 69.9611 40.8607L67.2326 42.3972C66.8918 42.5892 66.4842 42.2922 66.5599 41.9081L67.1747 38.8307C67.2058 38.6744 67.1546 38.5114 67.0366 38.4042L64.7357 36.2782C64.4483 36.0124 64.6042 35.53 64.9918 35.4854L68.1013 35.1214C68.2594 35.1035 68.3975 35.003 68.4643 34.8578L69.7696 32.006C69.9322 31.6487 70.4378 31.6487 70.6004 32.006Z" fill="#E38982"/>
<path d="M85.9316 32.006L87.2368 34.8578C87.3036 35.003 87.4417 35.1035 87.5999 35.1214L90.7093 35.4854C91.0969 35.53 91.2528 36.0124 90.9655 36.2782L88.6646 38.4042C88.5465 38.5136 88.4953 38.6744 88.5265 38.8307L89.1412 41.9081C89.217 42.2922 88.8094 42.5892 88.4686 42.3972L85.74 40.8607C85.6019 40.7826 85.4304 40.7826 85.2923 40.8607L82.5637 42.3972C82.223 42.5892 81.8153 42.2922 81.8911 41.9081L82.5058 38.8307C82.537 38.6744 82.4858 38.5114 82.3677 38.4042L80.0668 36.2782C79.7795 36.0124 79.9354 35.53 80.323 35.4854L83.4324 35.1214C83.5906 35.1035 83.7287 35.003 83.7955 34.8578L85.1008 32.006C85.2634 31.6487 85.769 31.6487 85.9316 32.006Z" fill="#E38982"/>
<path d="M100.632 32.006L101.938 34.8578C102.004 35.003 102.143 35.1035 102.301 35.1214L105.41 35.4854C105.798 35.53 105.954 36.0124 105.666 36.2782L103.365 38.4042C103.247 38.5136 103.196 38.6744 103.227 38.8307L103.842 41.9081C103.918 42.2922 103.51 42.5892 103.169 42.3972L100.441 40.8607C100.303 40.7826 100.131 40.7826 99.9931 40.8607L97.2646 42.3972C96.9238 42.5892 96.5162 42.2922 96.5919 41.9081L97.2066 38.8307C97.2378 38.6744 97.1866 38.5114 97.0685 38.4042L94.7676 36.2782C94.4803 36.0124 94.6362 35.53 95.0238 35.4854L98.1332 35.1214C98.2914 35.1035 98.4295 35.003 98.4963 34.8578L99.8016 32.006C99.9642 31.6487 100.47 31.6487 100.632 32.006Z" fill="#E38982"/>
<path d="M115.843 32.1467L117.148 34.9985C117.215 35.1437 117.353 35.2442 117.512 35.262L120.621 35.6261C121.009 35.6707 121.164 36.1531 120.877 36.4188L118.576 38.5449C118.458 38.6543 118.407 38.8151 118.438 38.9714L119.053 42.0488C119.129 42.4329 118.721 42.7299 118.38 42.5379L115.652 41.0014C115.514 40.9232 115.342 40.9232 115.204 41.0014L112.475 42.5379C112.135 42.7299 111.727 42.4329 111.803 42.0488L112.417 38.9714C112.449 38.8151 112.397 38.6521 112.279 38.5449L109.978 36.4188C109.691 36.1531 109.847 35.6707 110.235 35.6261L113.344 35.262C113.502 35.2442 113.64 35.1437 113.707 34.9985L115.012 32.1467C115.175 31.7894 115.681 31.7894 115.843 32.1467Z" fill="#E38982"/>
<path d="M129.176 32.1467L130.482 34.9985C130.549 35.1437 130.687 35.2442 130.845 35.262L133.954 35.6261C134.342 35.6707 134.498 36.1531 134.21 36.4188L131.909 38.5449C131.791 38.6543 131.74 38.8151 131.771 38.9714L132.386 42.0488C132.462 42.4329 132.054 42.7299 131.713 42.5379L128.985 41.0014C128.847 40.9232 128.675 40.9232 128.537 41.0014L125.809 42.5379C125.468 42.7299 125.06 42.4329 125.136 42.0488L125.751 38.9714C125.782 38.8151 125.731 38.6521 125.613 38.5449L123.312 36.4188C123.024 36.1531 123.18 35.6707 123.568 35.6261L126.677 35.262C126.835 35.2442 126.974 35.1437 127.04 34.9985L128.346 32.1467C128.508 31.7894 129.014 31.7894 129.176 32.1467Z" fill="#E38982"/>
<path d="M121.857 23.3702C121.463 23.3568 121.095 23.1803 120.824 22.8945C120.552 22.6086 120.416 22.2134 120.429 21.8181C120.443 21.4228 120.619 21.0543 120.904 20.7819C121.189 20.5094 121.583 20.3732 121.977 20.3866C122.372 20.4 122.739 20.5764 123.011 20.8623C123.283 21.1481 123.419 21.5434 123.405 21.9387C123.392 22.3339 123.216 22.7024 122.931 22.9749C122.632 23.2473 122.251 23.3836 121.857 23.3702Z" fill="#E38982"/>
<path d="M66.2614 22.9481H68.4486V14.5289H66.2614V22.9481ZM72.0904 15.8777C72.1038 15.6879 72.0637 15.4825 71.9947 15.306C71.9278 15.1162 71.8321 14.9509 71.6962 14.8013C71.5603 14.6517 71.4111 14.5423 71.2218 14.4619C71.0458 14.3792 70.8542 14.3256 70.6515 14.3256C70.4489 14.3256 70.2573 14.3524 70.0813 14.4217C69.892 14.4887 69.7272 14.5847 69.5779 14.7209C69.4287 14.8572 69.3196 15.0068 69.2394 15.1966C69.157 15.373 69.1169 15.5651 69.1035 15.7683C69.0901 16.1636 69.226 16.5455 69.4978 16.8447C69.7695 17.1306 70.137 17.307 70.5313 17.3204C70.9255 17.3338 71.3064 17.1976 71.6049 16.9251C71.9033 16.6393 72.0659 16.2708 72.0949 15.8755L72.0904 15.8777ZM78.2447 17.6219H74.7655C74.848 17.1998 75.0774 16.8179 75.4048 16.5455C75.7322 16.273 76.151 16.1234 76.5742 16.1368C76.9818 16.1368 77.376 16.2864 77.6879 16.5589C78.0131 16.8313 78.2046 17.2132 78.2447 17.6219ZM80.5122 19.27C80.5523 19.0511 80.5657 18.8345 80.5657 18.6291C80.5657 16.273 78.9085 14.2966 76.5853 14.2966C74.0728 14.2966 72.4691 16.3534 72.4691 18.7094C72.4691 21.3647 74.3713 23.1089 76.8994 23.1089C77.552 23.1223 78.2046 22.986 78.8016 22.727C79.3985 22.4679 79.942 22.0727 80.3786 21.597L79.0889 20.304C78.8172 20.6032 78.492 20.8489 78.1244 21.0119C77.7569 21.1749 77.3627 21.2709 76.9551 21.2843C76.3982 21.2977 75.8414 21.1079 75.4204 20.726C74.9994 20.3576 74.7277 19.8261 74.6742 19.2677H80.5167L80.5122 19.27ZM88.1366 18.7385C88.1633 19.3236 87.9473 19.8953 87.553 20.333C87.1588 20.7685 86.6153 21.0275 86.0317 21.0677H85.8424C85.2588 21.0275 84.7019 20.7685 84.3077 20.333C83.9134 19.8975 83.7108 19.3258 83.7241 18.7385C83.7241 17.4164 84.6485 16.4092 85.8847 16.3824H85.9671C87.2033 16.4092 88.141 17.4186 88.141 18.7385H88.1366ZM88.1767 22.9481H90.2816V14.5289H88.1767V15.2502L88.1232 15.1966C87.4305 14.6383 86.5618 14.339 85.6775 14.3524C83.3677 14.3524 81.5747 16.273 81.5747 18.7251C81.5613 19.8015 81.9422 20.8511 82.6483 21.6685C83.0425 22.1173 83.5303 22.4724 84.0738 22.7181C84.6173 22.9637 85.2142 23.0865 85.8 23.0865C86.6554 23.0999 87.484 22.8007 88.1232 22.2424L88.1767 22.1888V22.9526V22.9481ZM92.0902 22.9481H94.2775V10.6207H92.0902V22.9481ZM98.0262 16.9407C98.0262 16.5187 98.5006 16.2194 99.209 16.2194C99.7925 16.2462 100.349 16.4383 100.813 16.7777L101.831 15.1966C101.002 14.6517 100.024 14.3658 99.0308 14.3658C98.2289 14.3524 97.4538 14.5981 96.8034 15.0604C96.5049 15.2792 96.2599 15.5651 96.0839 15.8911C95.908 16.2172 95.8255 16.5857 95.8255 16.9541C95.8255 18.5487 97.2667 19.0377 98.4205 19.433C99.2223 19.7055 99.9284 19.9511 99.9284 20.5094C99.9284 20.9449 99.454 21.2575 98.8147 21.2575C97.9728 21.2575 97.1575 20.9717 96.5049 20.4402L95.4447 21.9923C96.4225 22.7002 97.5919 23.0821 98.788 23.0955C99.6166 23.1089 100.432 22.8498 101.111 22.3875C101.423 22.1843 101.668 21.8962 101.844 21.5702C102.02 21.2441 102.116 20.8757 102.116 20.5072C102.116 18.7094 100.594 18.2047 99.3716 17.7961C98.6098 17.5772 98.0262 17.374 98.0262 16.9385V16.9407ZM108.936 17.6889H105.377V17.6487C105.459 17.2266 105.688 16.8313 106.029 16.5589C106.37 16.2864 106.791 16.1368 107.225 16.1368C107.66 16.1368 108.054 16.2998 108.366 16.5723C108.678 16.8447 108.883 17.24 108.936 17.6487V17.6889ZM111.126 19.27C111.152 19.0668 111.179 18.8613 111.179 18.6581C111.179 16.2462 109.439 14.3681 107.225 14.3681C104.902 14.3681 103.149 16.2484 103.149 18.7407C103.149 21.233 104.956 23.0999 107.537 23.0999C108.176 23.1133 108.813 22.9771 109.399 22.7181C109.983 22.459 110.513 22.0905 110.947 21.6149L109.711 20.3754C109.439 20.6747 109.114 20.9069 108.747 21.07C108.379 21.233 107.985 21.329 107.593 21.3424C107.023 21.3692 106.466 21.166 106.031 20.7841C105.597 20.4022 105.325 19.8707 105.27 19.299V19.2588L111.126 19.2722V19.27ZM112.551 22.9481H114.752V10.6207H112.564L112.551 22.9481ZM118.748 14.5289V14.2296C118.748 13.4257 118.87 13.113 119.073 12.8674C119.235 12.6909 119.44 12.5547 119.656 12.4721C119.875 12.3895 120.117 12.3492 120.349 12.3626C120.567 12.3626 120.783 12.3895 121.002 12.4453L121.34 10.5649C120.919 10.4555 120.485 10.4153 120.035 10.4153C119.071 10.4019 118.146 10.7547 117.44 11.4091C116.83 12.0076 116.543 12.854 116.543 14.147V22.9325H118.743V16.3668H121.351V14.5289H118.743H118.748Z" fill="#222323"/>
</g>
<defs>
<clipPath id="clip0_537_2682">
<rect width="152" height="49" fill="white"/>
</clipPath>
</defs>
</svg>
